<?xml version="1.0" encoding="UTF-8"?>
<svg width="20px" height="20px" viewBox="0 0 20 20" version="1.1" xmlns="http://www.w3.org/2000/svg" xmlns:xlink="http://www.w3.org/1999/xlink" xmlns:sketch="http://www.bohemiancoding.com/sketch/ns">
    <!-- Generator: Sketch 3.4.2 (15855) - http://www.bohemiancoding.com/sketch -->
    <title>noun_50345</title>
    <desc>Created with Sketch.</desc>
    <defs></defs>
    <g id="Page-1" stroke="none" stroke-width="1" fill="none" fill-rule="evenodd" sketch:type="MSPage">
        <g id="noun_50345" sketch:type="MSLayerGroup" fill="#F16F30">
            <path d="M16.9230769,0 L3.07692308,0 C1.38,0 0,1.56 0,3.47826087 L0,12.173913 C0,14.0921739 1.38,15.6521739 3.07692308,15.6521739 L4.86384615,15.6521739 L6.20923077,19.4530435 C6.32615385,19.7834783 6.60846154,20 6.92307692,20 C7.23769231,20 7.52,19.7834783 7.63769231,19.4530435 L8.98230769,15.6521739 L16.9230769,15.6521739 C18.62,15.6521739 20,14.0921739 20,12.173913 L20,3.47826087 C20,1.56 18.62,0 16.9230769,0 L16.9230769,0 Z M18.4615385,12.173913 C18.4615385,13.1330435 17.7715385,13.9130435 16.9230769,13.9130435 L8.46153846,13.9130435 C8.14692308,13.9130435 7.86461538,14.1295652 7.74692308,14.46 L6.92307692,16.7895652 L6.09923077,14.46 C5.98153846,14.1295652 5.69923077,13.9130435 5.38461538,13.9130435 L3.07692308,13.9130435 C2.22846154,13.9130435 1.53846154,13.1330435 1.53846154,12.173913 L1.53846154,3.47826087 C1.53846154,2.51913043 2.22846154,1.73913043 3.07692308,1.73913043 L16.9230769,1.73913043 C17.7715385,1.73913043 18.4615385,2.51913043 18.4615385,3.47826087 L18.4615385,12.173913 L18.4615385,12.173913 Z" id="Shape" sketch:type="MSShapeGroup"></path>
        </g>
    </g>
</svg>