<?xml version="1.0" encoding="UTF-8"?>
<svg width="20px" height="21px" viewBox="0 0 20 21" version="1.1" xmlns="http://www.w3.org/2000/svg" xmlns:xlink="http://www.w3.org/1999/xlink" xmlns:sketch="http://www.bohemiancoding.com/sketch/ns">
    <!-- Generator: Sketch 3.4.2 (15855) - http://www.bohemiancoding.com/sketch -->
    <title>Shape</title>
    <desc>Created with Sketch.</desc>
    <defs></defs>
    <g id="Page-1" stroke="none" stroke-width="1" fill="none" fill-rule="evenodd" sketch:type="MSPage">
        <g id="noun_729339_cc" sketch:type="MSLayerGroup" fill="#F16F30">
            <g id="Group" sketch:type="MSShapeGroup">
                <g transform="translate(0.000000, 0.637820)" id="Shape">
                    <path d="M5.78125002,-2.84217094e-14 C4.05097956,-2.84217094e-14 2.57562047,0.895699848 1.56960229,2.24279962 C0.56358409,3.58989939 0,5.38107409 0,7.25197377 C0,10.3664532 1.14173184,12.6793529 2.90482956,14.5743025 C4.66792729,16.4692272 7.02928411,18.0137019 9.63068183,19.8804266 C9.85557555,20.0398578 10.1444245,20.0398578 10.3693182,19.8804266 C12.9707159,18.0137019 15.3320727,16.4692272 17.0951705,14.5743025 C18.8582682,12.6793529 20,10.3664532 20,7.25197377 C20,5.38107409 19.4364159,3.58989939 18.4303977,2.24279962 C17.4243795,0.895699848 15.9490205,-4.81348139e-21 14.21875,-4.81348139e-21 C12.3645477,-4.81348139e-21 10.8960841,0.901549847 10,1.71139971 C9.10391592,0.901549847 7.63545229,-4.81348139e-21 5.78125002,-4.81348139e-21 L5.78125002,-2.84217094e-14 Z M5.78125002,1.50039975 C7.48109547,1.50039975 8.98820001,2.63339955 9.50994319,3.21962445 C9.63840765,3.36571751 9.81525022,3.44820249 10,3.44820249 C10.1847498,3.44820249 10.3615924,3.36571751 10.4900568,3.21962445 C11.0118,2.63339955 12.5189046,1.50039975 14.21875,1.50039975 C15.5287523,1.50039975 16.5939409,2.14459964 17.3792614,3.19617446 C18.1645818,4.24774928 18.6363636,5.71404903 18.6363636,7.25197377 C18.6363636,9.98120331 17.7326409,11.787853 16.1434659,13.4958777 C14.6347932,15.1173524 12.4606046,16.6002522 10,18.3565769 C7.53939547,16.6002522 5.36520683,15.1173524 3.85653411,13.4958777 C2.26735911,11.787853 1.36363638,9.98120331 1.36363638,7.25197377 C1.36363638,5.71404903 1.8354182,4.24774928 2.62073866,3.19617446 C3.40605911,2.14459964 4.47124774,1.50039975 5.78125002,1.50039975 L5.78125002,1.50039975 Z"></path>
                </g>
            </g>
        </g>
    </g>
</svg>